<svg xmlns="http://www.w3.org/2000/svg" viewBox="0 0 64 64">
  <defs>
    <linearGradient id="body" x1="12" x2="48" y1="18" y2="46" gradientUnits="userSpaceOnUse">
      <stop offset="0" stop-color="#ffd25f"/>
      <stop offset="0.48" stop-color="#ff9f1c"/>
      <stop offset="1" stop-color="#f45d22"/>
    </linearGradient>
    <linearGradient id="tail" x1="42" x2="62" y1="20" y2="44" gradientUnits="userSpaceOnUse">
      <stop offset="0" stop-color="#ffbe4d"/>
      <stop offset="1" stop-color="#ff6b2a"/>
    </linearGradient>
  </defs>
  <path fill="#fff7dc" d="M5 32c4.9-8.3 13-13.7 23.3-13.7 10.7 0 19.4 6.1 22.6 13.7-3.2 7.6-11.9 13.7-22.6 13.7C18 45.7 9.9 40.3 5 32Z"/>
  <path fill="url(#body)" d="M7.5 32c4.6-7.1 11.8-11.6 20.7-11.6 9.6 0 17.2 5.1 20.2 11.6-3 6.5-10.6 11.6-20.2 11.6-8.9 0-16.1-4.5-20.7-11.6Z"/>
  <path fill="url(#tail)" d="M44.3 31.9c4.3-8.1 11.4-10.6 16-10.6-2.1 4.7-2.2 8.2-.3 10.7-1.9 2.4-1.8 6 .3 10.7-4.6 0-11.7-2.6-16-10.8Z"/>
  <path fill="#ffcf54" d="M26.6 20.5c-3.9 5.1-4.4 17.6 0 23.1-5.9-1.1-10.7-5.3-14.1-11.6 3.4-6.1 8.2-10.4 14.1-11.5Z" opacity=".72"/>
  <path fill="#ffefd0" d="M21.2 25.6c5.5-3.4 14.7-2.5 20.6 2-6.8-1.8-13.6-1.6-20.6-2Z" opacity=".6"/>
  <circle cx="17.8" cy="28.5" r="3.5" fill="#fff7dc"/>
  <circle cx="18.9" cy="28.7" r="1.8" fill="#222222"/>
  <path fill="#ffe08a" d="M33.3 43.4c5.1 1.8 10.2 4.7 13.8 9.4-6.7.2-13.5-1.4-18.1-7.1l4.3-2.3Z"/>
  <path fill="#f15a24" d="M27.9 44.3c3.7 2.8 6.7 6.8 8.3 12.1-5.5-1.8-9.8-5.2-11.8-10.7l3.5-1.4Z" opacity=".88"/>
  <path fill="#f15a24" d="M28.2 19.5c3.5-4.1 8.3-6.3 14.1-6.6-2.8 5.3-6.4 8.6-11 10l-3.1-3.4Z"/>
</svg>
